<svg xmlns="http://www.w3.org/2000/svg" viewBox="0 0 220 240" role="img" aria-labelledby="title">
<title id="title">Coffee stained lecture notes with a hand-bound spine</title>
<defs>
<linearGradient id="skin" x1="0" y1="0" x2=".85" y2="1"><stop stop-color="#ffe0b8"/><stop offset=".48" stop-color="#e5ac89"/><stop offset="1" stop-color="#b76969"/></linearGradient>
<linearGradient id="paper" x1="0" y1="0" x2=".7" y2="1"><stop stop-color="#fff9dd"/><stop offset=".7" stop-color="#e5ca97"/><stop offset="1" stop-color="#af815a"/></linearGradient>
<linearGradient id="gold" x1="0" y1="0" x2=".8" y2="1"><stop stop-color="#fff0a3"/><stop offset=".45" stop-color="#e6a743"/><stop offset="1" stop-color="#9d522d"/></linearGradient>
<linearGradient id="teal" x1="0" y1="0" x2=".8" y2="1"><stop stop-color="#90e5d1"/><stop offset=".5" stop-color="#4bb5a8"/><stop offset="1" stop-color="#245c63"/></linearGradient>
<linearGradient id="pink" x1="0" y1="0" x2=".8" y2="1"><stop stop-color="#ff9dbb"/><stop offset=".5" stop-color="#d64d86"/><stop offset="1" stop-color="#71294f"/></linearGradient>
<linearGradient id="cloth" x1="0" y1="0" x2="1" y2="1"><stop stop-color="#66607b"/><stop offset=".5" stop-color="#353248"/><stop offset="1" stop-color="#161820"/></linearGradient>
<linearGradient id="bread" x1="0" y1="0" x2=".5" y2="1"><stop stop-color="#ffe1a1"/><stop offset=".55" stop-color="#ce985e"/><stop offset="1" stop-color="#985335"/></linearGradient>
<linearGradient id="beer" x1="0" y1="0" x2="1" y2="1"><stop stop-color="#b2b757"/><stop offset=".4" stop-color="#526941"/><stop offset="1" stop-color="#172d2c"/></linearGradient>
<linearGradient id="red" x1="0" y1="0" x2=".7" y2="1"><stop stop-color="#f18370"/><stop offset=".5" stop-color="#be4c4d"/><stop offset="1" stop-color="#71333d"/></linearGradient>
<radialGradient id="glow"><stop stop-color="#efbd7a" stop-opacity=".35"/><stop offset="1" stop-color="#efbd7a" stop-opacity="0"/></radialGradient>
<radialGradient id="neon"><stop stop-color="#f05ba5" stop-opacity=".6"/><stop offset="1" stop-color="#f05ba5" stop-opacity="0"/></radialGradient>
<filter id="shadow" x="-30%" y="-25%" width="160%" height="160%"><feDropShadow dx="0" dy="4" stdDeviation="3" flood-color="#100f19" flood-opacity=".52"/></filter>
<filter id="bloom" x="-60%" y="-60%" width="220%" height="220%"><feGaussianBlur stdDeviation="3"/></filter>
<pattern id="inkgrain" width="19" height="23" patternUnits="userSpaceOnUse"><path d="M2 4l3 1m8 12 2-1m-6 8 2 1" stroke="#fff4d4" stroke-width=".6" opacity=".15"/><path d="m9 8 2-1m6 14 2-1" stroke="#201b2a" stroke-width=".7" opacity=".2"/></pattern>
</defs>
<g stroke-linecap="round" stroke-linejoin="round"><ellipse cx="110" cy="215" rx="74" ry="11" fill="#100f19" stroke="none" stroke-width="0" opacity=".35"/><g transform="rotate(-5 110 120)" filter="url(#shadow)"><path d="M40 44Q72 31 173 39L186 193Q136 214 53 206Z" fill="url(#red)" stroke="#211c2a" stroke-width="4" /><path d="M47 38Q110 27 169 37L179 191Q126 208 56 198Z" fill="url(#paper)" stroke="#211c2a" stroke-width="3" /><path d="M47 38Q49 113 56 198L42 206Q31 149 33 58Z" fill="url(#cloth)" stroke="#211c2a" stroke-width="3" /><path d="M68 39Q117 36 166 43L171 167Q155 181 174 190L62 195Z" fill="#fff0cf" stroke="#211c2a" stroke-width="1.8" /><path d="M148 163Q156 173 172 166L174 190Q162 184 148 185Z" fill="#ccb98f" stroke="#211c2a" stroke-width="2" /><path d="M45 60q9-3 12-1M46 83q9-3 13-1M48 108q9-3 13-1M49 134q9-3 13-1M51 159q9-3 13-1M52 185q9-3 13-1" fill="none" stroke="#e6a743" stroke-width="3" /><text x="111" y="68" font-family="Arial,sans-serif" font-size="18" font-weight="900" text-anchor="middle" fill="#211c2a" transform="rotate(-4 111 68)">СЕСИЯ</text><path d="M76 85q38-7 76-5M76 92q25-6 45-4M79 111q18-4 35-2M78 119q40-6 70-4M81 130q12-4 23-2M82 138q35-3 66-4M83 151q19-4 31-1" fill="none" stroke="#847355" stroke-width="1.7" /><path d="M126 142q16-6 26 8t-14 20q-15 1-19-10t7-18" fill="none" stroke="#b8916c" stroke-width="3" opacity=".52"/><path d="M115 117q3-16 8-23l18 3q-4 12-8 27l-12-2Z" fill="#55cfc4" stroke="#211c2a" stroke-width="2" /><path d="M82 24q2 24 1 50M94 22q-1 18 1 28" fill="none" stroke="#ed5198" stroke-width="3" /></g></g>
</svg>
