<svg xmlns="http://www.w3.org/2000/svg" viewBox="0 0 220 240" role="img" aria-labelledby="title">
<title id="title">Original hand-ink worn exam notebook with layered paper edges, coffee ring, ruled notes and brass spiral binding</title>
<defs>
<linearGradient id="skin" x1="0" y1="0" x2=".85" y2="1"><stop stop-color="#efd0b4"/><stop offset=".48" stop-color="#cd9c7c"/><stop offset="1" stop-color="#945f52"/></linearGradient>
<linearGradient id="paper" x1="0" y1="0" x2=".7" y2="1"><stop stop-color="#fff9dd"/><stop offset=".7" stop-color="#e5ca97"/><stop offset="1" stop-color="#af815a"/></linearGradient>
<linearGradient id="gold" x1="0" y1="0" x2=".8" y2="1"><stop stop-color="#fff0a3"/><stop offset=".45" stop-color="#e6a743"/><stop offset="1" stop-color="#9d522d"/></linearGradient>
<linearGradient id="teal" x1="0" y1="0" x2=".8" y2="1"><stop stop-color="#9abdaf"/><stop offset=".5" stop-color="#568f85"/><stop offset="1" stop-color="#245c63"/></linearGradient>
<linearGradient id="pink" x1="0" y1="0" x2=".8" y2="1"><stop stop-color="#d7a4ae"/><stop offset=".5" stop-color="#a95977"/><stop offset="1" stop-color="#71294f"/></linearGradient>
<linearGradient id="cloth" x1="0" y1="0" x2="1" y2="1"><stop stop-color="#66607b"/><stop offset=".5" stop-color="#353248"/><stop offset="1" stop-color="#161820"/></linearGradient>
<linearGradient id="bread" x1="0" y1="0" x2=".5" y2="1"><stop stop-color="#ffe1a1"/><stop offset=".55" stop-color="#ce985e"/><stop offset="1" stop-color="#985335"/></linearGradient>
<linearGradient id="beer" x1="0" y1="0" x2="1" y2="1"><stop stop-color="#b2b757"/><stop offset=".4" stop-color="#526941"/><stop offset="1" stop-color="#172d2c"/></linearGradient>
<linearGradient id="red" x1="0" y1="0" x2=".7" y2="1"><stop stop-color="#f18370"/><stop offset=".5" stop-color="#be4c4d"/><stop offset="1" stop-color="#71333d"/></linearGradient>
<radialGradient id="glow"><stop stop-color="#efbd7a" stop-opacity=".35"/><stop offset="1" stop-color="#efbd7a" stop-opacity="0"/></radialGradient>
<radialGradient id="neon"><stop stop-color="#f05ba5" stop-opacity=".6"/><stop offset="1" stop-color="#f05ba5" stop-opacity="0"/></radialGradient>
<filter id="shadow" x="-30%" y="-25%" width="160%" height="160%"><feDropShadow dx="0" dy="4" stdDeviation="3" flood-color="#100f19" flood-opacity=".52"/></filter>
<filter id="bloom" x="-60%" y="-60%" width="220%" height="220%"><feGaussianBlur stdDeviation="3"/></filter>
<pattern id="inkgrain" width="19" height="23" patternUnits="userSpaceOnUse"><path d="M2 4l3 1m8 12 2-1m-6 8 2 1" stroke="#fff4d4" stroke-width=".6" opacity=".15"/><path d="m9 8 2-1m6 14 2-1" stroke="#201b2a" stroke-width=".7" opacity=".2"/></pattern>

<linearGradient id="face-light" x1="0" y1="0" x2="1" y2=".65"><stop stop-color="#edd2b6"/><stop offset=".38" stop-color="#d3a482"/><stop offset=".78" stop-color="#b47962"/><stop offset="1" stop-color="#805347"/></linearGradient>
<linearGradient id="cotton" x1="0" y1="0" x2="1" y2=".7"><stop stop-color="#8bafa3"/><stop offset=".36" stop-color="#648d82"/><stop offset=".7" stop-color="#3c645e"/><stop offset="1" stop-color="#243f41"/></linearGradient>
<linearGradient id="glass-light" x1="0" y1="0" x2="1" y2=".12"><stop stop-color="#102922"/><stop offset=".16" stop-color="#527341"/><stop offset=".3" stop-color="#b3ba70"/><stop offset=".4" stop-color="#607747"/><stop offset=".68" stop-color="#2c492f"/><stop offset=".91" stop-color="#142e25"/><stop offset="1" stop-color="#546640"/></linearGradient>
<linearGradient id="leather" x1="0" y1="0" x2="1" y2="1"><stop stop-color="#575565"/><stop offset=".42" stop-color="#343643"/><stop offset=".7" stop-color="#22242d"/><stop offset="1" stop-color="#11171d"/></linearGradient>
<linearGradient id="chicken" x1="0" y1="0" x2=".3" y2="1"><stop stop-color="#dbad78"/><stop offset=".45" stop-color="#a76b42"/><stop offset="1" stop-color="#58382b"/></linearGradient>
<linearGradient id="lettuce" x1="0" y1="0" x2=".2" y2="1"><stop stop-color="#afb875"/><stop offset=".4" stop-color="#789452"/><stop offset="1" stop-color="#3e613b"/></linearGradient>
</defs>
<g stroke="#25232a" stroke-linecap="round" stroke-linejoin="round" stroke-width="1.9">
<ellipse cx="110" cy="226" rx="74" ry="8" fill="#0d1016" stroke="none" opacity=".45"/>
<g transform="rotate(-5 110 125)" filter="url(#shadow)">
<path d="M44 42Q104 33 174 39L185 198Q133 216 47 208Z" fill="url(#red)" stroke-width="2"/>
<path d="M47 42L174 40L182 192Q126 209 53 200Z" fill="#b6a183" stroke-width="1.2"/>
<path d="M48 38Q107 29 169 37L178 189Q126 205 54 198Z" fill="url(#paper)" stroke-width="1.8"/>
<path d="M48 38Q49 113 55 198L43 207Q34 146 34 50Z" fill="url(#leather)" stroke-width="1.3"/>
<path d="M61 41Q111 37 163 42L169 170Q162 180 174 187L60 193Z" fill="#eee1be" stroke-width=".9"/>
<path d="M149 166Q159 174 169 170L174 187Q160 184 150 185Z" fill="#bbab86" stroke-width="1"/>
<path d="M48 60q10-4 13-1M49 84q10-4 13-1M50 108q10-4 13-1M51 133q10-4 13-1M52 157q10-4 13-1M53 181q10-4 13-1" fill="none" stroke="#c6a66b" stroke-width="1.9"/>
<path d="M60 198Q116 206 172 192M60 202Q116 210 176 196" stroke="#6c6254" stroke-width=".7" fill="none"/>
<text x="112" y="70" font-family="Georgia,serif" font-size="19" font-weight="bold" text-anchor="middle" fill="#403936" stroke="none" transform="rotate(-3 112 70)">СЕСИЯ</text>
<path d="M73 86q38-7 78-4M74 94q29-5 44-3M77 113q21-4 34-2M77 121q36-5 70-4M78 131q18-3 29-2M80 141q29-3 64-4M80 151q19-3 33-1" fill="none" stroke="#857c60" stroke-width="1.2"/>
<path d="M122 145q17-6 27 8t-12 19q-18 1-21-10t6-17" fill="none" stroke="#97714e" stroke-width="2.2" opacity=".5"/>
<path d="M117 118L122 94L139 96L134 122Z" fill="#78a697" stroke-width="1"/><path d="M122 98l11 1M122 113l10 1" stroke="#aec6b2" stroke-width=".8"/>
<path d="M80 27q2 13 2 28M91 25l1 17" stroke="#a65371" stroke-width="2" fill="none"/>
<path d="M145 48l11-1M156 53l1 13M68 175l3 8M68 182l3 6M170 177l1 7" fill="none" stroke="#a89470" stroke-width=".9"/>
<path d="M35 62L38 120M48 187l2 8" stroke="#877e75" stroke-width="1.1" fill="none"/>
</g>

</g>
</svg>
