<svg xmlns="http://www.w3.org/2000/svg" viewBox="0 0 220 240" role="img" aria-labelledby="title">
<title id="title">Night shift takeaway coffee</title>
<defs><pattern id="hatch" width="10" height="10" patternUnits="userSpaceOnUse" patternTransform="rotate(-18)"><path d="M0 0V10" stroke="#111916" stroke-width="2" opacity=".3"/></pattern></defs>
<g stroke-linejoin="miter" stroke-linecap="square"><path d="M52 70 165 57 153 203 90 219 62 199" fill="#eee8ce" stroke="#111916" stroke-width="5" stroke-linejoin="miter" stroke-linecap="square"/><path d="M62 109 163 92 158 163 73 178" fill="#d9a23b" stroke="#111916" stroke-width="5" stroke-linejoin="miter" stroke-linecap="square"/><path d="M44 54 151 34 180 50 174 75 53 91" fill="#111916" stroke="#eee8ce" stroke-width="3" stroke-linejoin="miter" stroke-linecap="square"/><path d="M57 47 148 31 163 43 68 62" fill="#7b8373" stroke="#111916" stroke-width="5" stroke-linejoin="miter" stroke-linecap="square"/><path d="M81 125 114 113 138 128 136 153 108 164 86 151" fill="#111916" stroke="#111916" stroke-width="5" stroke-linejoin="miter" stroke-linecap="square"/><path d="M101 123 112 118 122 128 118 145 105 150 97 141" fill="#eee8ce" stroke="#111916" stroke-width="2" stroke-linejoin="miter" stroke-linecap="square"/><path d="M93 179 149 169 M99 188 146 182" fill="none" stroke="#7b8373" stroke-width="3" stroke-linejoin="miter" stroke-linecap="square"/><path d="M63 26 69 16 61 5 M97 24 109 12 102 1 M136 16 145 7" fill="none" stroke="#eee8ce" stroke-width="5" stroke-linejoin="miter" stroke-linecap="square"/><rect x="67" y="105" width="8" height="39" fill="#bd503d" stroke="none" stroke-width="0"/></g>
</svg>