<svg xmlns="http://www.w3.org/2000/svg" viewBox="0 0 220 240" role="img" aria-labelledby="title">
<title id="title">Adult underground DJ at the mixer</title>
<defs><pattern id="hatch" width="10" height="10" patternUnits="userSpaceOnUse" patternTransform="rotate(-18)"><path d="M0 0V10" stroke="#111916" stroke-width="2" opacity=".3"/></pattern></defs>
<g stroke-linejoin="miter" stroke-linecap="square"><path d="M21 214 30 153 68 125 137 125 188 158 199 214" fill="#bd503d" stroke="#111916" stroke-width="5" stroke-linejoin="miter" stroke-linecap="square"/><path d="M85 111 123 109 128 138 107 165 80 141" fill="#bd9370" stroke="#111916" stroke-width="5" stroke-linejoin="miter" stroke-linecap="square"/><g transform="translate(107 81) scale(1.18)"><path d="M-32-35 -10-49 22-43 35-23 30 20 12 41 -13 37 -30 18" fill="#bd9370" stroke="#111916" stroke-width="5" stroke-linejoin="miter" stroke-linecap="square"/><path d="M-30-15 -19-32 0-31 11-42 24-31 34-9 38-28 25-50 -9-57 -37-34 -37-10" fill="#111916" stroke="#111916" stroke-width="5" stroke-linejoin="miter" stroke-linecap="square"/><path d="M16-22 28-18 23 14 9 33 -5 32 10 17" fill="#d9a23b" stroke="none" stroke-width="0" stroke-linejoin="miter" stroke-linecap="square"/><path d="M-20-9 -9-12 M8-13 22-12" fill="none" stroke="#111916" stroke-width="5" stroke-linejoin="miter" stroke-linecap="square"/><path d="M-17-2 -10-3 M12-5 19-4" fill="none" stroke="#111916" stroke-width="4" stroke-linejoin="miter" stroke-linecap="square"/><path d="M3-5 0 13 10 14" fill="#bd9370" stroke="#111916" stroke-width="3" stroke-linejoin="miter" stroke-linecap="square"/><path d="M-7 27 9 24 17 26" fill="none" stroke="#111916" stroke-width="4" stroke-linejoin="miter" stroke-linecap="square"/><path d="M-21 18 -17 23 M-14 28 -12 31 M0 33 3 36 M21 21 23 18" fill="none" stroke="#111916" stroke-width="2" stroke-linejoin="miter" stroke-linecap="square"/></g><path d="M68 66 66 40 83 21 124 17 145 40 148 66" fill="#111916" stroke="#eee8ce" stroke-width="8" stroke-linejoin="miter" stroke-linecap="square"/><path d="M61 60 76 59 78 98 62 101 54 83" fill="#78c5a0" stroke="#111916" stroke-width="5" stroke-linejoin="miter" stroke-linecap="square"/><path d="M138 57 154 61 158 84 149 98 138 94" fill="#78c5a0" stroke="#111916" stroke-width="5" stroke-linejoin="miter" stroke-linecap="square"/><path d="M74 69 137 65 130 88 110 90 104 80 97 90 77 91" fill="#111916" stroke="#eee8ce" stroke-width="3" stroke-linejoin="miter" stroke-linecap="square"/><path d="M82 74 95 73 M117 71 128 71" fill="none" stroke="#78c5a0" stroke-width="3" stroke-linejoin="miter" stroke-linecap="square"/><path d="M17 184 196 184 210 231 7 231" fill="#111916" stroke="#eee8ce" stroke-width="4" stroke-linejoin="miter" stroke-linecap="square"/><path d="M34 195 67 194 86 209 65 222 29 221 16 208" fill="#7b8373" stroke="#111916" stroke-width="5" stroke-linejoin="miter" stroke-linecap="square"/><path d="M141 194 178 194 198 209 177 222 141 221 129 208" fill="#7b8373" stroke="#111916" stroke-width="5" stroke-linejoin="miter" stroke-linecap="square"/><path d="M45 203 60 205 M149 205 174 208" fill="none" stroke="#111916" stroke-width="5" stroke-linejoin="miter" stroke-linecap="square"/><rect x="93" y="196" width="29" height="25" fill="#bd503d" stroke="#111916" stroke-width="4"/><path d="M99 204 116 204 M101 212 109 212" fill="none" stroke="#eee8ce" stroke-width="3" stroke-linejoin="miter" stroke-linecap="square"/><path d="M43 168 66 163 79 184 62 194 44 186" fill="#bd9370" stroke="#111916" stroke-width="5" stroke-linejoin="miter" stroke-linecap="square"/><path d="M148 165 168 164 183 181 177 194 158 188" fill="#bd9370" stroke="#111916" stroke-width="5" stroke-linejoin="miter" stroke-linecap="square"/></g>
</svg>