<svg xmlns="http://www.w3.org/2000/svg" viewBox="0 0 220 240" role="img" aria-labelledby="title">
<title id="title">Contagious wild modifier</title>
<defs><pattern id="hatch" width="10" height="10" patternUnits="userSpaceOnUse" patternTransform="rotate(-18)"><path d="M0 0V10" stroke="#111916" stroke-width="2" opacity=".3"/></pattern></defs>
<g stroke-linejoin="miter" stroke-linecap="square"><path d="M105 17 121 48 153 31 155 69 193 72 169 100 199 128 165 142 177 176 141 173 132 215 107 187 80 214 76 177 34 183 49 147 17 127 49 105 27 70 67 74 71 36" fill="#bd503d" stroke="#eee8ce" stroke-width="3" stroke-linejoin="miter" stroke-linecap="square"/><path d="M62 83 104 58 152 78 165 126 138 169 87 177 55 139" fill="#111916" stroke="#d9a23b" stroke-width="4" stroke-linejoin="miter" stroke-linecap="square"/><path d="M72 106 89 101 102 119 114 98 136 103 139 128 114 151 89 145 71 128" fill="#78c5a0" stroke="#111916" stroke-width="5" stroke-linejoin="miter" stroke-linecap="square"/><path d="M84 113 96 118 M118 114 130 109 M91 135 113 142 125 130" fill="none" stroke="#111916" stroke-width="5" stroke-linejoin="miter" stroke-linecap="square"/><circle cx="53" cy="52" r="5" fill="#78c5a0" stroke="#111916" stroke-width="2"/><circle cx="180" cy="178" r="5" fill="#78c5a0" stroke="#111916" stroke-width="2"/></g>
</svg>