<svg xmlns="http://www.w3.org/2000/svg" viewBox="0 0 1600 900" role="img" aria-labelledby="title">
<title id="title">Original Friday nightclub street with cut paper venue signs</title>
<defs><pattern id="concrete" width="80" height="80" patternUnits="userSpaceOnUse"><path d="M12 14h4 M58 33h3 M29 68h3 M77 75h2" stroke="#eee8ce" stroke-width="2" opacity=".11"/></pattern><pattern id="print" width="7" height="7" patternUnits="userSpaceOnUse"><path d="M0 0v7" stroke="#111916" stroke-width="1" opacity=".16"/></pattern></defs>
<rect x="0" y="0" width="1600" height="900" fill="#111916" stroke="none" stroke-width="0"/><path d="M0 305 284 206 391 249 419 718 0 827" fill="#413d31" stroke="#111916" stroke-width="5" stroke-linejoin="miter" stroke-linecap="square"/><path d="M0 346h380" fill="none" stroke="#7b8373" stroke-width="2" stroke-linejoin="miter" stroke-linecap="square"/><path d="M0 346v38" fill="none" stroke="#7b8373" stroke-width="2" stroke-linejoin="miter" stroke-linecap="square"/><path d="M71 346v38" fill="none" stroke="#7b8373" stroke-width="2" stroke-linejoin="miter" stroke-linecap="square"/><path d="M142 346v38" fill="none" stroke="#7b8373" stroke-width="2" stroke-linejoin="miter" stroke-linecap="square"/><path d="M213 346v38" fill="none" stroke="#7b8373" stroke-width="2" stroke-linejoin="miter" stroke-linecap="square"/><path d="M284 346v38" fill="none" stroke="#7b8373" stroke-width="2" stroke-linejoin="miter" stroke-linecap="square"/><path d="M0 384h380" fill="none" stroke="#7b8373" stroke-width="2" stroke-linejoin="miter" stroke-linecap="square"/><path d="M35 384v38" fill="none" stroke="#7b8373" stroke-width="2" stroke-linejoin="miter" stroke-linecap="square"/><path d="M106 384v38" fill="none" stroke="#7b8373" stroke-width="2" stroke-linejoin="miter" stroke-linecap="square"/><path d="M177 384v38" fill="none" stroke="#7b8373" stroke-width="2" stroke-linejoin="miter" stroke-linecap="square"/><path d="M248 384v38" fill="none" stroke="#7b8373" stroke-width="2" stroke-linejoin="miter" stroke-linecap="square"/><path d="M319 384v38" fill="none" stroke="#7b8373" stroke-width="2" stroke-linejoin="miter" stroke-linecap="square"/><path d="M0 422h380" fill="none" stroke="#7b8373" stroke-width="2" stroke-linejoin="miter" stroke-linecap="square"/><path d="M0 422v38" fill="none" stroke="#7b8373" stroke-width="2" stroke-linejoin="miter" stroke-linecap="square"/><path d="M71 422v38" fill="none" stroke="#7b8373" stroke-width="2" stroke-linejoin="miter" stroke-linecap="square"/><path d="M142 422v38" fill="none" stroke="#7b8373" stroke-width="2" stroke-linejoin="miter" stroke-linecap="square"/><path d="M213 422v38" fill="none" stroke="#7b8373" stroke-width="2" stroke-linejoin="miter" stroke-linecap="square"/><path d="M284 422v38" fill="none" stroke="#7b8373" stroke-width="2" stroke-linejoin="miter" stroke-linecap="square"/><path d="M0 460h380" fill="none" stroke="#7b8373" stroke-width="2" stroke-linejoin="miter" stroke-linecap="square"/><path d="M35 460v38" fill="none" stroke="#7b8373" stroke-width="2" stroke-linejoin="miter" stroke-linecap="square"/><path d="M106 460v38" fill="none" stroke="#7b8373" stroke-width="2" stroke-linejoin="miter" stroke-linecap="square"/><path d="M177 460v38" fill="none" stroke="#7b8373" stroke-width="2" stroke-linejoin="miter" stroke-linecap="square"/><path d="M248 460v38" fill="none" stroke="#7b8373" stroke-width="2" stroke-linejoin="miter" stroke-linecap="square"/><path d="M319 460v38" fill="none" stroke="#7b8373" stroke-width="2" stroke-linejoin="miter" stroke-linecap="square"/><path d="M0 498h380" fill="none" stroke="#7b8373" stroke-width="2" stroke-linejoin="miter" stroke-linecap="square"/><path d="M0 498v38" fill="none" stroke="#7b8373" stroke-width="2" stroke-linejoin="miter" stroke-linecap="square"/><path d="M71 498v38" fill="none" stroke="#7b8373" stroke-width="2" stroke-linejoin="miter" stroke-linecap="square"/><path d="M142 498v38" fill="none" stroke="#7b8373" stroke-width="2" stroke-linejoin="miter" stroke-linecap="square"/><path d="M213 498v38" fill="none" stroke="#7b8373" stroke-width="2" stroke-linejoin="miter" stroke-linecap="square"/><path d="M284 498v38" fill="none" stroke="#7b8373" stroke-width="2" stroke-linejoin="miter" stroke-linecap="square"/><path d="M0 536h380" fill="none" stroke="#7b8373" stroke-width="2" stroke-linejoin="miter" stroke-linecap="square"/><path d="M35 536v38" fill="none" stroke="#7b8373" stroke-width="2" stroke-linejoin="miter" stroke-linecap="square"/><path d="M106 536v38" fill="none" stroke="#7b8373" stroke-width="2" stroke-linejoin="miter" stroke-linecap="square"/><path d="M177 536v38" fill="none" stroke="#7b8373" stroke-width="2" stroke-linejoin="miter" stroke-linecap="square"/><path d="M248 536v38" fill="none" stroke="#7b8373" stroke-width="2" stroke-linejoin="miter" stroke-linecap="square"/><path d="M319 536v38" fill="none" stroke="#7b8373" stroke-width="2" stroke-linejoin="miter" stroke-linecap="square"/><path d="M0 574h380" fill="none" stroke="#7b8373" stroke-width="2" stroke-linejoin="miter" stroke-linecap="square"/><path d="M0 574v38" fill="none" stroke="#7b8373" stroke-width="2" stroke-linejoin="miter" stroke-linecap="square"/><path d="M71 574v38" fill="none" stroke="#7b8373" stroke-width="2" stroke-linejoin="miter" stroke-linecap="square"/><path d="M142 574v38" fill="none" stroke="#7b8373" stroke-width="2" stroke-linejoin="miter" stroke-linecap="square"/><path d="M213 574v38" fill="none" stroke="#7b8373" stroke-width="2" stroke-linejoin="miter" stroke-linecap="square"/><path d="M284 574v38" fill="none" stroke="#7b8373" stroke-width="2" stroke-linejoin="miter" stroke-linecap="square"/><path d="M0 612h380" fill="none" stroke="#7b8373" stroke-width="2" stroke-linejoin="miter" stroke-linecap="square"/><path d="M35 612v38" fill="none" stroke="#7b8373" stroke-width="2" stroke-linejoin="miter" stroke-linecap="square"/><path d="M106 612v38" fill="none" stroke="#7b8373" stroke-width="2" stroke-linejoin="miter" stroke-linecap="square"/><path d="M177 612v38" fill="none" stroke="#7b8373" stroke-width="2" stroke-linejoin="miter" stroke-linecap="square"/><path d="M248 612v38" fill="none" stroke="#7b8373" stroke-width="2" stroke-linejoin="miter" stroke-linecap="square"/><path d="M319 612v38" fill="none" stroke="#7b8373" stroke-width="2" stroke-linejoin="miter" stroke-linecap="square"/><path d="M0 650h380" fill="none" stroke="#7b8373" stroke-width="2" stroke-linejoin="miter" stroke-linecap="square"/><path d="M0 650v38" fill="none" stroke="#7b8373" stroke-width="2" stroke-linejoin="miter" stroke-linecap="square"/><path d="M71 650v38" fill="none" stroke="#7b8373" stroke-width="2" stroke-linejoin="miter" stroke-linecap="square"/><path d="M142 650v38" fill="none" stroke="#7b8373" stroke-width="2" stroke-linejoin="miter" stroke-linecap="square"/><path d="M213 650v38" fill="none" stroke="#7b8373" stroke-width="2" stroke-linejoin="miter" stroke-linecap="square"/><path d="M284 650v38" fill="none" stroke="#7b8373" stroke-width="2" stroke-linejoin="miter" stroke-linecap="square"/><path d="M0 688h380" fill="none" stroke="#7b8373" stroke-width="2" stroke-linejoin="miter" stroke-linecap="square"/><path d="M35 688v38" fill="none" stroke="#7b8373" stroke-width="2" stroke-linejoin="miter" stroke-linecap="square"/><path d="M106 688v38" fill="none" stroke="#7b8373" stroke-width="2" stroke-linejoin="miter" stroke-linecap="square"/><path d="M177 688v38" fill="none" stroke="#7b8373" stroke-width="2" stroke-linejoin="miter" stroke-linecap="square"/><path d="M248 688v38" fill="none" stroke="#7b8373" stroke-width="2" stroke-linejoin="miter" stroke-linecap="square"/><path d="M319 688v38" fill="none" stroke="#7b8373" stroke-width="2" stroke-linejoin="miter" stroke-linecap="square"/><path d="M0 726h380" fill="none" stroke="#7b8373" stroke-width="2" stroke-linejoin="miter" stroke-linecap="square"/><path d="M0 726v38" fill="none" stroke="#7b8373" stroke-width="2" stroke-linejoin="miter" stroke-linecap="square"/><path d="M71 726v38" fill="none" stroke="#7b8373" stroke-width="2" stroke-linejoin="miter" stroke-linecap="square"/><path d="M142 726v38" fill="none" stroke="#7b8373" stroke-width="2" stroke-linejoin="miter" stroke-linecap="square"/><path d="M213 726v38" fill="none" stroke="#7b8373" stroke-width="2" stroke-linejoin="miter" stroke-linecap="square"/><path d="M284 726v38" fill="none" stroke="#7b8373" stroke-width="2" stroke-linejoin="miter" stroke-linecap="square"/><path d="M1190 251 1361 196 1600 272 1600 831 1171 717" fill="#413d31" stroke="#111916" stroke-width="5" stroke-linejoin="miter" stroke-linecap="square"/><path d="M1255 328h345" fill="none" stroke="#7b8373" stroke-width="2" stroke-linejoin="miter" stroke-linecap="square"/><path d="M1255 328v38" fill="none" stroke="#7b8373" stroke-width="2" stroke-linejoin="miter" stroke-linecap="square"/><path d="M1326 328v38" fill="none" stroke="#7b8373" stroke-width="2" stroke-linejoin="miter" stroke-linecap="square"/><path d="M1397 328v38" fill="none" stroke="#7b8373" stroke-width="2" stroke-linejoin="miter" stroke-linecap="square"/><path d="M1468 328v38" fill="none" stroke="#7b8373" stroke-width="2" stroke-linejoin="miter" stroke-linecap="square"/><path d="M1255 366h345" fill="none" stroke="#7b8373" stroke-width="2" stroke-linejoin="miter" stroke-linecap="square"/><path d="M1290 366v38" fill="none" stroke="#7b8373" stroke-width="2" stroke-linejoin="miter" stroke-linecap="square"/><path d="M1361 366v38" fill="none" stroke="#7b8373" stroke-width="2" stroke-linejoin="miter" stroke-linecap="square"/><path d="M1432 366v38" fill="none" stroke="#7b8373" stroke-width="2" stroke-linejoin="miter" stroke-linecap="square"/><path d="M1503 366v38" fill="none" stroke="#7b8373" stroke-width="2" stroke-linejoin="miter" stroke-linecap="square"/><path d="M1255 404h345" fill="none" stroke="#7b8373" stroke-width="2" stroke-linejoin="miter" stroke-linecap="square"/><path d="M1255 404v38" fill="none" stroke="#7b8373" stroke-width="2" stroke-linejoin="miter" stroke-linecap="square"/><path d="M1326 404v38" fill="none" stroke="#7b8373" stroke-width="2" stroke-linejoin="miter" stroke-linecap="square"/><path d="M1397 404v38" fill="none" stroke="#7b8373" stroke-width="2" stroke-linejoin="miter" stroke-linecap="square"/><path d="M1468 404v38" fill="none" stroke="#7b8373" stroke-width="2" stroke-linejoin="miter" stroke-linecap="square"/><path d="M1255 442h345" fill="none" stroke="#7b8373" stroke-width="2" stroke-linejoin="miter" stroke-linecap="square"/><path d="M1290 442v38" fill="none" stroke="#7b8373" stroke-width="2" stroke-linejoin="miter" stroke-linecap="square"/><path d="M1361 442v38" fill="none" stroke="#7b8373" stroke-width="2" stroke-linejoin="miter" stroke-linecap="square"/><path d="M1432 442v38" fill="none" stroke="#7b8373" stroke-width="2" stroke-linejoin="miter" stroke-linecap="square"/><path d="M1503 442v38" fill="none" stroke="#7b8373" stroke-width="2" stroke-linejoin="miter" stroke-linecap="square"/><path d="M1255 480h345" fill="none" stroke="#7b8373" stroke-width="2" stroke-linejoin="miter" stroke-linecap="square"/><path d="M1255 480v38" fill="none" stroke="#7b8373" stroke-width="2" stroke-linejoin="miter" stroke-linecap="square"/><path d="M1326 480v38" fill="none" stroke="#7b8373" stroke-width="2" stroke-linejoin="miter" stroke-linecap="square"/><path d="M1397 480v38" fill="none" stroke="#7b8373" stroke-width="2" stroke-linejoin="miter" stroke-linecap="square"/><path d="M1468 480v38" fill="none" stroke="#7b8373" stroke-width="2" stroke-linejoin="miter" stroke-linecap="square"/><path d="M1255 518h345" fill="none" stroke="#7b8373" stroke-width="2" stroke-linejoin="miter" stroke-linecap="square"/><path d="M1290 518v38" fill="none" stroke="#7b8373" stroke-width="2" stroke-linejoin="miter" stroke-linecap="square"/><path d="M1361 518v38" fill="none" stroke="#7b8373" stroke-width="2" stroke-linejoin="miter" stroke-linecap="square"/><path d="M1432 518v38" fill="none" stroke="#7b8373" stroke-width="2" stroke-linejoin="miter" stroke-linecap="square"/><path d="M1503 518v38" fill="none" stroke="#7b8373" stroke-width="2" stroke-linejoin="miter" stroke-linecap="square"/><path d="M1255 556h345" fill="none" stroke="#7b8373" stroke-width="2" stroke-linejoin="miter" stroke-linecap="square"/><path d="M1255 556v38" fill="none" stroke="#7b8373" stroke-width="2" stroke-linejoin="miter" stroke-linecap="square"/><path d="M1326 556v38" fill="none" stroke="#7b8373" stroke-width="2" stroke-linejoin="miter" stroke-linecap="square"/><path d="M1397 556v38" fill="none" stroke="#7b8373" stroke-width="2" stroke-linejoin="miter" stroke-linecap="square"/><path d="M1468 556v38" fill="none" stroke="#7b8373" stroke-width="2" stroke-linejoin="miter" stroke-linecap="square"/><path d="M1255 594h345" fill="none" stroke="#7b8373" stroke-width="2" stroke-linejoin="miter" stroke-linecap="square"/><path d="M1290 594v38" fill="none" stroke="#7b8373" stroke-width="2" stroke-linejoin="miter" stroke-linecap="square"/><path d="M1361 594v38" fill="none" stroke="#7b8373" stroke-width="2" stroke-linejoin="miter" stroke-linecap="square"/><path d="M1432 594v38" fill="none" stroke="#7b8373" stroke-width="2" stroke-linejoin="miter" stroke-linecap="square"/><path d="M1503 594v38" fill="none" stroke="#7b8373" stroke-width="2" stroke-linejoin="miter" stroke-linecap="square"/><path d="M1255 632h345" fill="none" stroke="#7b8373" stroke-width="2" stroke-linejoin="miter" stroke-linecap="square"/><path d="M1255 632v38" fill="none" stroke="#7b8373" stroke-width="2" stroke-linejoin="miter" stroke-linecap="square"/><path d="M1326 632v38" fill="none" stroke="#7b8373" stroke-width="2" stroke-linejoin="miter" stroke-linecap="square"/><path d="M1397 632v38" fill="none" stroke="#7b8373" stroke-width="2" stroke-linejoin="miter" stroke-linecap="square"/><path d="M1468 632v38" fill="none" stroke="#7b8373" stroke-width="2" stroke-linejoin="miter" stroke-linecap="square"/><path d="M1255 670h345" fill="none" stroke="#7b8373" stroke-width="2" stroke-linejoin="miter" stroke-linecap="square"/><path d="M1290 670v38" fill="none" stroke="#7b8373" stroke-width="2" stroke-linejoin="miter" stroke-linecap="square"/><path d="M1361 670v38" fill="none" stroke="#7b8373" stroke-width="2" stroke-linejoin="miter" stroke-linecap="square"/><path d="M1432 670v38" fill="none" stroke="#7b8373" stroke-width="2" stroke-linejoin="miter" stroke-linecap="square"/><path d="M1503 670v38" fill="none" stroke="#7b8373" stroke-width="2" stroke-linejoin="miter" stroke-linecap="square"/><path d="M1255 708h345" fill="none" stroke="#7b8373" stroke-width="2" stroke-linejoin="miter" stroke-linecap="square"/><path d="M1255 708v38" fill="none" stroke="#7b8373" stroke-width="2" stroke-linejoin="miter" stroke-linecap="square"/><path d="M1326 708v38" fill="none" stroke="#7b8373" stroke-width="2" stroke-linejoin="miter" stroke-linecap="square"/><path d="M1397 708v38" fill="none" stroke="#7b8373" stroke-width="2" stroke-linejoin="miter" stroke-linecap="square"/><path d="M1468 708v38" fill="none" stroke="#7b8373" stroke-width="2" stroke-linejoin="miter" stroke-linecap="square"/><path d="M1255 746h345" fill="none" stroke="#7b8373" stroke-width="2" stroke-linejoin="miter" stroke-linecap="square"/><path d="M1290 746v38" fill="none" stroke="#7b8373" stroke-width="2" stroke-linejoin="miter" stroke-linecap="square"/><path d="M1361 746v38" fill="none" stroke="#7b8373" stroke-width="2" stroke-linejoin="miter" stroke-linecap="square"/><path d="M1432 746v38" fill="none" stroke="#7b8373" stroke-width="2" stroke-linejoin="miter" stroke-linecap="square"/><path d="M1503 746v38" fill="none" stroke="#7b8373" stroke-width="2" stroke-linejoin="miter" stroke-linecap="square"/><path d="M0 135 264 73 342 149 320 353 0 421" fill="#111916" stroke="#d9a23b" stroke-width="5" stroke-linejoin="miter" stroke-linecap="square"/><path d="M20 178 247 125 280 163 269 315 26 373" fill="#bd503d" stroke="#111916" stroke-width="5" stroke-linejoin="miter" stroke-linecap="square"/><path d="M49 208 212 171 M55 261 225 217 M65 314 200 280" fill="none" stroke="#eee8ce" stroke-width="8" stroke-linejoin="miter" stroke-linecap="square"/><path d="M1295 94 1600 147 1600 438 1272 366" fill="#111916" stroke="#78c5a0" stroke-width="5" stroke-linejoin="miter" stroke-linecap="square"/><path d="M1312 126 1582 172 1582 398 1294 338" fill="#78c5a0" stroke="#111916" stroke-width="5" stroke-linejoin="miter" stroke-linecap="square"/><path d="M1352 194 1514 221 1514 253 1348 226" fill="#111916" stroke="#111916" stroke-width="5" stroke-linejoin="miter" stroke-linecap="square"/><path d="M1346 261 1541 294 1538 328 1341 295" fill="#111916" stroke="#111916" stroke-width="5" stroke-linejoin="miter" stroke-linecap="square"/><path d="M62 415 269 371 315 711 82 788" fill="#111916" stroke="#eee8ce" stroke-width="3" stroke-linejoin="miter" stroke-linecap="square"/><path d="M93 446 242 414 274 685 109 731" fill="#bd503d" stroke="#111916" stroke-width="5" stroke-linejoin="miter" stroke-linecap="square"/><path d="M1301 428 1512 471 1470 761 1274 705" fill="#111916" stroke="#eee8ce" stroke-width="3" stroke-linejoin="miter" stroke-linecap="square"/><path d="M1324 460 1474 490 1444 712 1299 677" fill="#d9a23b" stroke="#111916" stroke-width="5" stroke-linejoin="miter" stroke-linecap="square"/><path d="M0 828 431 721 1156 721 1600 828 1600 900 0 900" fill="#111916" stroke="#111916" stroke-width="5" stroke-linejoin="miter" stroke-linecap="square"/><path d="M0 896 335 798 M1291 799 1600 897" fill="none" stroke="#bd503d" stroke-width="9" stroke-linejoin="miter" stroke-linecap="square"/><path d="M120 491 197 474 227 521 201 566 131 555" fill="#d9a23b" stroke="#111916" stroke-width="5" stroke-linejoin="miter" stroke-linecap="square"/><path d="M139 507 187 499 M145 531 199 516" fill="none" stroke="#111916" stroke-width="7" stroke-linejoin="miter" stroke-linecap="square"/><g transform="translate(340 801) scale(1.6)"><path d="M-13-70 -18-83 -11-98 4-101 15-90 17-76 6-66 -8-66" fill="#111916" stroke="none" stroke-width="0" stroke-linejoin="miter" stroke-linecap="square"/><path d="M-9-65 9-64 26-43 18-20 12-18 8-40 6-9 15 0 16 48 6 48 0 8 -3 48 -14 48 -12 2 -17-8 -18-39 -25-18 -34-22 -28-48" fill="#111916" stroke="none" stroke-width="0" stroke-linejoin="miter" stroke-linecap="square"/><path d="M14-53 35-66 53-62 49-54 35-54 22-38" fill="#111916" stroke="none" stroke-width="0" stroke-linejoin="miter" stroke-linecap="square"/></g><g transform="translate(257 818) scale(1.18)"><path d="M-13-70 -18-83 -11-98 4-101 15-90 17-76 6-66 -8-66" fill="#111916" stroke="none" stroke-width="0" stroke-linejoin="miter" stroke-linecap="square"/><path d="M-9-65 9-64 26-43 18-20 12-18 8-40 6-9 15 0 16 48 6 48 0 8 -3 48 -14 48 -12 2 -17-8 -18-39 -25-18 -34-22 -28-48" fill="#111916" stroke="none" stroke-width="0" stroke-linejoin="miter" stroke-linecap="square"/></g><g transform="translate(1231 809) scale(1.5)"><path d="M-13-70 -18-83 -11-98 4-101 15-90 17-76 6-66 -8-66" fill="#111916" stroke="none" stroke-width="0" stroke-linejoin="miter" stroke-linecap="square"/><path d="M-9-65 9-64 26-43 18-20 12-18 8-40 6-9 15 0 16 48 6 48 0 8 -3 48 -14 48 -12 2 -17-8 -18-39 -25-18 -34-22 -28-48" fill="#111916" stroke="none" stroke-width="0" stroke-linejoin="miter" stroke-linecap="square"/><path d="M14-53 35-66 53-62 49-54 35-54 22-38" fill="#111916" stroke="none" stroke-width="0" stroke-linejoin="miter" stroke-linecap="square"/></g><g transform="translate(1323 820) scale(1.2)"><path d="M-13-70 -18-83 -11-98 4-101 15-90 17-76 6-66 -8-66" fill="#111916" stroke="none" stroke-width="0" stroke-linejoin="miter" stroke-linecap="square"/><path d="M-9-65 9-64 26-43 18-20 12-18 8-40 6-9 15 0 16 48 6 48 0 8 -3 48 -14 48 -12 2 -17-8 -18-39 -25-18 -34-22 -28-48" fill="#111916" stroke="none" stroke-width="0" stroke-linejoin="miter" stroke-linecap="square"/></g><path d="M366 360 397 367 411 429 378 420" fill="#78c5a0" stroke="#111916" stroke-width="5" stroke-linejoin="miter" stroke-linecap="square"/><path d="M1160 370 1190 361 1179 426 1148 434" fill="#bd503d" stroke="#111916" stroke-width="5" stroke-linejoin="miter" stroke-linecap="square"/><path d="M404 167 774 99 1172 165" fill="none" stroke="#7b8373" stroke-width="2" stroke-linejoin="miter" stroke-linecap="square"/><rect x="420" y="160.0" width="9" height="14" fill="#78c5a0" stroke="#111916" stroke-width="2"/><rect x="492" y="150.72949016875157" width="9" height="14" fill="#d9a23b" stroke="#111916" stroke-width="2"/><rect x="564" y="142.3664424312258" width="9" height="14" fill="#78c5a0" stroke="#111916" stroke-width="2"/><rect x="636" y="135.72949016875157" width="9" height="14" fill="#d9a23b" stroke="#111916" stroke-width="2"/><rect x="708" y="131.4683045111454" width="9" height="14" fill="#78c5a0" stroke="#111916" stroke-width="2"/><rect x="780" y="130.0" width="9" height="14" fill="#d9a23b" stroke="#111916" stroke-width="2"/><rect x="852" y="131.4683045111454" width="9" height="14" fill="#78c5a0" stroke="#111916" stroke-width="2"/><rect x="924" y="135.72949016875157" width="9" height="14" fill="#d9a23b" stroke="#111916" stroke-width="2"/><rect x="996" y="142.3664424312258" width="9" height="14" fill="#78c5a0" stroke="#111916" stroke-width="2"/><rect x="1068" y="150.72949016875157" width="9" height="14" fill="#d9a23b" stroke="#111916" stroke-width="2"/><rect x="1140" y="160.0" width="9" height="14" fill="#78c5a0" stroke="#111916" stroke-width="2"/>
<rect x="0" y="0" width="1600" height="900" fill="url(#print)" stroke="none" stroke-width="0"/>
</svg>