<svg xmlns="http://www.w3.org/2000/svg" viewBox="0 0 1600 900" role="img" aria-labelledby="title">
<title id="title">Original Sofia student district concrete dorms and late night food kiosk</title>
<defs><pattern id="concrete" width="80" height="80" patternUnits="userSpaceOnUse"><path d="M12 14h4 M58 33h3 M29 68h3 M77 75h2" stroke="#eee8ce" stroke-width="2" opacity=".11"/></pattern><pattern id="print" width="7" height="7" patternUnits="userSpaceOnUse"><path d="M0 0v7" stroke="#111916" stroke-width="1" opacity=".16"/></pattern></defs>
<rect x="0" y="0" width="1600" height="900" fill="#111916" stroke="none" stroke-width="0"/><path d="M0 182 250 98 414 228 434 681 0 715" fill="#413d31" stroke="#111916" stroke-width="5" stroke-linejoin="miter" stroke-linecap="square"/><rect x="0" y="211" width="395" height="481" fill="url(#concrete)" stroke="none" stroke-width="0"/><rect x="34" y="236" width="24" height="28" fill="#111916" stroke="#111916" stroke-width="3"/><rect x="76" y="236" width="24" height="28" fill="#d9a23b" stroke="#111916" stroke-width="3"/><path d="M88 236v28" fill="none" stroke="#413d31" stroke-width="2" stroke-linejoin="miter" stroke-linecap="square"/><rect x="118" y="236" width="24" height="28" fill="#111916" stroke="#111916" stroke-width="3"/><rect x="160" y="236" width="24" height="28" fill="#111916" stroke="#111916" stroke-width="3"/><rect x="202" y="236" width="24" height="28" fill="#111916" stroke="#111916" stroke-width="3"/><rect x="244" y="236" width="24" height="28" fill="#d9a23b" stroke="#111916" stroke-width="3"/><path d="M256 236v28" fill="none" stroke="#413d31" stroke-width="2" stroke-linejoin="miter" stroke-linecap="square"/><rect x="286" y="236" width="24" height="28" fill="#111916" stroke="#111916" stroke-width="3"/><rect x="328" y="236" width="24" height="28" fill="#111916" stroke="#111916" stroke-width="3"/><rect x="34" y="279" width="24" height="28" fill="#d9a23b" stroke="#111916" stroke-width="3"/><path d="M46 279v28" fill="none" stroke="#413d31" stroke-width="2" stroke-linejoin="miter" stroke-linecap="square"/><rect x="76" y="279" width="24" height="28" fill="#111916" stroke="#111916" stroke-width="3"/><rect x="118" y="279" width="24" height="28" fill="#d9a23b" stroke="#111916" stroke-width="3"/><path d="M130 279v28" fill="none" stroke="#413d31" stroke-width="2" stroke-linejoin="miter" stroke-linecap="square"/><rect x="160" y="279" width="24" height="28" fill="#111916" stroke="#111916" stroke-width="3"/><rect x="202" y="279" width="24" height="28" fill="#111916" stroke="#111916" stroke-width="3"/><rect x="244" y="279" width="24" height="28" fill="#111916" stroke="#111916" stroke-width="3"/><rect x="286" y="279" width="24" height="28" fill="#d9a23b" stroke="#111916" stroke-width="3"/><path d="M298 279v28" fill="none" stroke="#413d31" stroke-width="2" stroke-linejoin="miter" stroke-linecap="square"/><rect x="328" y="279" width="24" height="28" fill="#111916" stroke="#111916" stroke-width="3"/><rect x="34" y="322" width="24" height="28" fill="#111916" stroke="#111916" stroke-width="3"/><rect x="76" y="322" width="24" height="28" fill="#d9a23b" stroke="#111916" stroke-width="3"/><path d="M88 322v28" fill="none" stroke="#413d31" stroke-width="2" stroke-linejoin="miter" stroke-linecap="square"/><rect x="118" y="322" width="24" height="28" fill="#111916" stroke="#111916" stroke-width="3"/><rect x="160" y="322" width="24" height="28" fill="#d9a23b" stroke="#111916" stroke-width="3"/><path d="M172 322v28" fill="none" stroke="#413d31" stroke-width="2" stroke-linejoin="miter" stroke-linecap="square"/><rect x="202" y="322" width="24" height="28" fill="#111916" stroke="#111916" stroke-width="3"/><rect x="244" y="322" width="24" height="28" fill="#111916" stroke="#111916" stroke-width="3"/><rect x="286" y="322" width="24" height="28" fill="#111916" stroke="#111916" stroke-width="3"/><rect x="328" y="322" width="24" height="28" fill="#d9a23b" stroke="#111916" stroke-width="3"/><path d="M340 322v28" fill="none" stroke="#413d31" stroke-width="2" stroke-linejoin="miter" stroke-linecap="square"/><rect x="34" y="365" width="24" height="28" fill="#111916" stroke="#111916" stroke-width="3"/><rect x="76" y="365" width="24" height="28" fill="#111916" stroke="#111916" stroke-width="3"/><rect x="118" y="365" width="24" height="28" fill="#d9a23b" stroke="#111916" stroke-width="3"/><path d="M130 365v28" fill="none" stroke="#413d31" stroke-width="2" stroke-linejoin="miter" stroke-linecap="square"/><rect x="160" y="365" width="24" height="28" fill="#111916" stroke="#111916" stroke-width="3"/><rect x="202" y="365" width="24" height="28" fill="#d9a23b" stroke="#111916" stroke-width="3"/><path d="M214 365v28" fill="none" stroke="#413d31" stroke-width="2" stroke-linejoin="miter" stroke-linecap="square"/><rect x="244" y="365" width="24" height="28" fill="#111916" stroke="#111916" stroke-width="3"/><rect x="286" y="365" width="24" height="28" fill="#111916" stroke="#111916" stroke-width="3"/><rect x="328" y="365" width="24" height="28" fill="#111916" stroke="#111916" stroke-width="3"/><rect x="34" y="408" width="24" height="28" fill="#d9a23b" stroke="#111916" stroke-width="3"/><path d="M46 408v28" fill="none" stroke="#413d31" stroke-width="2" stroke-linejoin="miter" stroke-linecap="square"/><rect x="76" y="408" width="24" height="28" fill="#111916" stroke="#111916" stroke-width="3"/><rect x="118" y="408" width="24" height="28" fill="#111916" stroke="#111916" stroke-width="3"/><rect x="160" y="408" width="24" height="28" fill="#d9a23b" stroke="#111916" stroke-width="3"/><path d="M172 408v28" fill="none" stroke="#413d31" stroke-width="2" stroke-linejoin="miter" stroke-linecap="square"/><rect x="202" y="408" width="24" height="28" fill="#111916" stroke="#111916" stroke-width="3"/><rect x="244" y="408" width="24" height="28" fill="#d9a23b" stroke="#111916" stroke-width="3"/><path d="M256 408v28" fill="none" stroke="#413d31" stroke-width="2" stroke-linejoin="miter" stroke-linecap="square"/><rect x="286" y="408" width="24" height="28" fill="#111916" stroke="#111916" stroke-width="3"/><rect x="328" y="408" width="24" height="28" fill="#111916" stroke="#111916" stroke-width="3"/><rect x="34" y="451" width="24" height="28" fill="#111916" stroke="#111916" stroke-width="3"/><rect x="76" y="451" width="24" height="28" fill="#d9a23b" stroke="#111916" stroke-width="3"/><path d="M88 451v28" fill="none" stroke="#413d31" stroke-width="2" stroke-linejoin="miter" stroke-linecap="square"/><rect x="118" y="451" width="24" height="28" fill="#111916" stroke="#111916" stroke-width="3"/><rect x="160" y="451" width="24" height="28" fill="#111916" stroke="#111916" stroke-width="3"/><rect x="202" y="451" width="24" height="28" fill="#d9a23b" stroke="#111916" stroke-width="3"/><path d="M214 451v28" fill="none" stroke="#413d31" stroke-width="2" stroke-linejoin="miter" stroke-linecap="square"/><rect x="244" y="451" width="24" height="28" fill="#111916" stroke="#111916" stroke-width="3"/><rect x="286" y="451" width="24" height="28" fill="#d9a23b" stroke="#111916" stroke-width="3"/><path d="M298 451v28" fill="none" stroke="#413d31" stroke-width="2" stroke-linejoin="miter" stroke-linecap="square"/><rect x="328" y="451" width="24" height="28" fill="#111916" stroke="#111916" stroke-width="3"/><rect x="34" y="494" width="24" height="28" fill="#111916" stroke="#111916" stroke-width="3"/><rect x="76" y="494" width="24" height="28" fill="#111916" stroke="#111916" stroke-width="3"/><rect x="118" y="494" width="24" height="28" fill="#d9a23b" stroke="#111916" stroke-width="3"/><path d="M130 494v28" fill="none" stroke="#413d31" stroke-width="2" stroke-linejoin="miter" stroke-linecap="square"/><rect x="160" y="494" width="24" height="28" fill="#111916" stroke="#111916" stroke-width="3"/><rect x="202" y="494" width="24" height="28" fill="#111916" stroke="#111916" stroke-width="3"/><rect x="244" y="494" width="24" height="28" fill="#d9a23b" stroke="#111916" stroke-width="3"/><path d="M256 494v28" fill="none" stroke="#413d31" stroke-width="2" stroke-linejoin="miter" stroke-linecap="square"/><rect x="286" y="494" width="24" height="28" fill="#111916" stroke="#111916" stroke-width="3"/><rect x="328" y="494" width="24" height="28" fill="#d9a23b" stroke="#111916" stroke-width="3"/><path d="M340 494v28" fill="none" stroke="#413d31" stroke-width="2" stroke-linejoin="miter" stroke-linecap="square"/><rect x="34" y="537" width="24" height="28" fill="#111916" stroke="#111916" stroke-width="3"/><rect x="76" y="537" width="24" height="28" fill="#111916" stroke="#111916" stroke-width="3"/><rect x="118" y="537" width="24" height="28" fill="#111916" stroke="#111916" stroke-width="3"/><rect x="160" y="537" width="24" height="28" fill="#d9a23b" stroke="#111916" stroke-width="3"/><path d="M172 537v28" fill="none" stroke="#413d31" stroke-width="2" stroke-linejoin="miter" stroke-linecap="square"/><rect x="202" y="537" width="24" height="28" fill="#111916" stroke="#111916" stroke-width="3"/><rect x="244" y="537" width="24" height="28" fill="#111916" stroke="#111916" stroke-width="3"/><rect x="286" y="537" width="24" height="28" fill="#d9a23b" stroke="#111916" stroke-width="3"/><path d="M298 537v28" fill="none" stroke="#413d31" stroke-width="2" stroke-linejoin="miter" stroke-linecap="square"/><rect x="328" y="537" width="24" height="28" fill="#111916" stroke="#111916" stroke-width="3"/><rect x="34" y="580" width="24" height="28" fill="#d9a23b" stroke="#111916" stroke-width="3"/><path d="M46 580v28" fill="none" stroke="#413d31" stroke-width="2" stroke-linejoin="miter" stroke-linecap="square"/><rect x="76" y="580" width="24" height="28" fill="#111916" stroke="#111916" stroke-width="3"/><rect x="118" y="580" width="24" height="28" fill="#111916" stroke="#111916" stroke-width="3"/><rect x="160" y="580" width="24" height="28" fill="#111916" stroke="#111916" stroke-width="3"/><rect x="202" y="580" width="24" height="28" fill="#d9a23b" stroke="#111916" stroke-width="3"/><path d="M214 580v28" fill="none" stroke="#413d31" stroke-width="2" stroke-linejoin="miter" stroke-linecap="square"/><rect x="244" y="580" width="24" height="28" fill="#111916" stroke="#111916" stroke-width="3"/><rect x="286" y="580" width="24" height="28" fill="#111916" stroke="#111916" stroke-width="3"/><rect x="328" y="580" width="24" height="28" fill="#d9a23b" stroke="#111916" stroke-width="3"/><path d="M340 580v28" fill="none" stroke="#413d31" stroke-width="2" stroke-linejoin="miter" stroke-linecap="square"/><path d="M230 98 250 98 274 667 251 674" fill="#7b8373" stroke="#111916" stroke-width="4" stroke-linejoin="miter" stroke-linecap="square"/><path d="M1192 276 1339 176 1600 126 1600 728 1230 700" fill="#413d31" stroke="#111916" stroke-width="5" stroke-linejoin="miter" stroke-linecap="square"/><rect x="1270" y="265" width="26" height="30" fill="#111916" stroke="#111916" stroke-width="3"/><rect x="1313" y="265" width="26" height="30" fill="#111916" stroke="#111916" stroke-width="3"/><rect x="1356" y="265" width="26" height="30" fill="#d9a23b" stroke="#111916" stroke-width="3"/><path d="M1369 265v30" fill="none" stroke="#413d31" stroke-width="2" stroke-linejoin="miter" stroke-linecap="square"/><rect x="1399" y="265" width="26" height="30" fill="#111916" stroke="#111916" stroke-width="3"/><rect x="1442" y="265" width="26" height="30" fill="#111916" stroke="#111916" stroke-width="3"/><rect x="1485" y="265" width="26" height="30" fill="#d9a23b" stroke="#111916" stroke-width="3"/><path d="M1498 265v30" fill="none" stroke="#413d31" stroke-width="2" stroke-linejoin="miter" stroke-linecap="square"/><rect x="1528" y="265" width="26" height="30" fill="#111916" stroke="#111916" stroke-width="3"/><rect x="1270" y="311" width="26" height="30" fill="#111916" stroke="#111916" stroke-width="3"/><rect x="1313" y="311" width="26" height="30" fill="#111916" stroke="#111916" stroke-width="3"/><rect x="1356" y="311" width="26" height="30" fill="#111916" stroke="#111916" stroke-width="3"/><rect x="1399" y="311" width="26" height="30" fill="#d9a23b" stroke="#111916" stroke-width="3"/><path d="M1412 311v30" fill="none" stroke="#413d31" stroke-width="2" stroke-linejoin="miter" stroke-linecap="square"/><rect x="1442" y="311" width="26" height="30" fill="#111916" stroke="#111916" stroke-width="3"/><rect x="1485" y="311" width="26" height="30" fill="#111916" stroke="#111916" stroke-width="3"/><rect x="1528" y="311" width="26" height="30" fill="#d9a23b" stroke="#111916" stroke-width="3"/><path d="M1541 311v30" fill="none" stroke="#413d31" stroke-width="2" stroke-linejoin="miter" stroke-linecap="square"/><rect x="1270" y="357" width="26" height="30" fill="#d9a23b" stroke="#111916" stroke-width="3"/><path d="M1283 357v30" fill="none" stroke="#413d31" stroke-width="2" stroke-linejoin="miter" stroke-linecap="square"/><rect x="1313" y="357" width="26" height="30" fill="#111916" stroke="#111916" stroke-width="3"/><rect x="1356" y="357" width="26" height="30" fill="#111916" stroke="#111916" stroke-width="3"/><rect x="1399" y="357" width="26" height="30" fill="#111916" stroke="#111916" stroke-width="3"/><rect x="1442" y="357" width="26" height="30" fill="#d9a23b" stroke="#111916" stroke-width="3"/><path d="M1455 357v30" fill="none" stroke="#413d31" stroke-width="2" stroke-linejoin="miter" stroke-linecap="square"/><rect x="1485" y="357" width="26" height="30" fill="#111916" stroke="#111916" stroke-width="3"/><rect x="1528" y="357" width="26" height="30" fill="#111916" stroke="#111916" stroke-width="3"/><rect x="1270" y="403" width="26" height="30" fill="#111916" stroke="#111916" stroke-width="3"/><rect x="1313" y="403" width="26" height="30" fill="#d9a23b" stroke="#111916" stroke-width="3"/><path d="M1326 403v30" fill="none" stroke="#413d31" stroke-width="2" stroke-linejoin="miter" stroke-linecap="square"/><rect x="1356" y="403" width="26" height="30" fill="#111916" stroke="#111916" stroke-width="3"/><rect x="1399" y="403" width="26" height="30" fill="#111916" stroke="#111916" stroke-width="3"/><rect x="1442" y="403" width="26" height="30" fill="#111916" stroke="#111916" stroke-width="3"/><rect x="1485" y="403" width="26" height="30" fill="#d9a23b" stroke="#111916" stroke-width="3"/><path d="M1498 403v30" fill="none" stroke="#413d31" stroke-width="2" stroke-linejoin="miter" stroke-linecap="square"/><rect x="1528" y="403" width="26" height="30" fill="#111916" stroke="#111916" stroke-width="3"/><rect x="1270" y="449" width="26" height="30" fill="#d9a23b" stroke="#111916" stroke-width="3"/><path d="M1283 449v30" fill="none" stroke="#413d31" stroke-width="2" stroke-linejoin="miter" stroke-linecap="square"/><rect x="1313" y="449" width="26" height="30" fill="#111916" stroke="#111916" stroke-width="3"/><rect x="1356" y="449" width="26" height="30" fill="#d9a23b" stroke="#111916" stroke-width="3"/><path d="M1369 449v30" fill="none" stroke="#413d31" stroke-width="2" stroke-linejoin="miter" stroke-linecap="square"/><rect x="1399" y="449" width="26" height="30" fill="#111916" stroke="#111916" stroke-width="3"/><rect x="1442" y="449" width="26" height="30" fill="#111916" stroke="#111916" stroke-width="3"/><rect x="1485" y="449" width="26" height="30" fill="#111916" stroke="#111916" stroke-width="3"/><rect x="1528" y="449" width="26" height="30" fill="#d9a23b" stroke="#111916" stroke-width="3"/><path d="M1541 449v30" fill="none" stroke="#413d31" stroke-width="2" stroke-linejoin="miter" stroke-linecap="square"/><rect x="1270" y="495" width="26" height="30" fill="#111916" stroke="#111916" stroke-width="3"/><rect x="1313" y="495" width="26" height="30" fill="#d9a23b" stroke="#111916" stroke-width="3"/><path d="M1326 495v30" fill="none" stroke="#413d31" stroke-width="2" stroke-linejoin="miter" stroke-linecap="square"/><rect x="1356" y="495" width="26" height="30" fill="#111916" stroke="#111916" stroke-width="3"/><rect x="1399" y="495" width="26" height="30" fill="#d9a23b" stroke="#111916" stroke-width="3"/><path d="M1412 495v30" fill="none" stroke="#413d31" stroke-width="2" stroke-linejoin="miter" stroke-linecap="square"/><rect x="1442" y="495" width="26" height="30" fill="#111916" stroke="#111916" stroke-width="3"/><rect x="1485" y="495" width="26" height="30" fill="#111916" stroke="#111916" stroke-width="3"/><rect x="1528" y="495" width="26" height="30" fill="#111916" stroke="#111916" stroke-width="3"/><rect x="1270" y="541" width="26" height="30" fill="#111916" stroke="#111916" stroke-width="3"/><rect x="1313" y="541" width="26" height="30" fill="#111916" stroke="#111916" stroke-width="3"/><rect x="1356" y="541" width="26" height="30" fill="#d9a23b" stroke="#111916" stroke-width="3"/><path d="M1369 541v30" fill="none" stroke="#413d31" stroke-width="2" stroke-linejoin="miter" stroke-linecap="square"/><rect x="1399" y="541" width="26" height="30" fill="#111916" stroke="#111916" stroke-width="3"/><rect x="1442" y="541" width="26" height="30" fill="#d9a23b" stroke="#111916" stroke-width="3"/><path d="M1455 541v30" fill="none" stroke="#413d31" stroke-width="2" stroke-linejoin="miter" stroke-linecap="square"/><rect x="1485" y="541" width="26" height="30" fill="#111916" stroke="#111916" stroke-width="3"/><rect x="1528" y="541" width="26" height="30" fill="#111916" stroke="#111916" stroke-width="3"/><rect x="1270" y="587" width="26" height="30" fill="#d9a23b" stroke="#111916" stroke-width="3"/><path d="M1283 587v30" fill="none" stroke="#413d31" stroke-width="2" stroke-linejoin="miter" stroke-linecap="square"/><rect x="1313" y="587" width="26" height="30" fill="#111916" stroke="#111916" stroke-width="3"/><rect x="1356" y="587" width="26" height="30" fill="#111916" stroke="#111916" stroke-width="3"/><rect x="1399" y="587" width="26" height="30" fill="#d9a23b" stroke="#111916" stroke-width="3"/><path d="M1412 587v30" fill="none" stroke="#413d31" stroke-width="2" stroke-linejoin="miter" stroke-linecap="square"/><rect x="1442" y="587" width="26" height="30" fill="#111916" stroke="#111916" stroke-width="3"/><rect x="1485" y="587" width="26" height="30" fill="#d9a23b" stroke="#111916" stroke-width="3"/><path d="M1498 587v30" fill="none" stroke="#413d31" stroke-width="2" stroke-linejoin="miter" stroke-linecap="square"/><rect x="1528" y="587" width="26" height="30" fill="#111916" stroke="#111916" stroke-width="3"/><rect x="1270" y="633" width="26" height="30" fill="#111916" stroke="#111916" stroke-width="3"/><rect x="1313" y="633" width="26" height="30" fill="#d9a23b" stroke="#111916" stroke-width="3"/><path d="M1326 633v30" fill="none" stroke="#413d31" stroke-width="2" stroke-linejoin="miter" stroke-linecap="square"/><rect x="1356" y="633" width="26" height="30" fill="#111916" stroke="#111916" stroke-width="3"/><rect x="1399" y="633" width="26" height="30" fill="#111916" stroke="#111916" stroke-width="3"/><rect x="1442" y="633" width="26" height="30" fill="#d9a23b" stroke="#111916" stroke-width="3"/><path d="M1455 633v30" fill="none" stroke="#413d31" stroke-width="2" stroke-linejoin="miter" stroke-linecap="square"/><rect x="1485" y="633" width="26" height="30" fill="#111916" stroke="#111916" stroke-width="3"/><rect x="1528" y="633" width="26" height="30" fill="#d9a23b" stroke="#111916" stroke-width="3"/><path d="M1541 633v30" fill="none" stroke="#413d31" stroke-width="2" stroke-linejoin="miter" stroke-linecap="square"/><path d="M414 419 485 428 488 655 424 659" fill="#7b8373" stroke="#111916" stroke-width="5" stroke-linejoin="miter" stroke-linecap="square"/><rect x="436" y="449" width="23" height="24" fill="#d9a23b" stroke="#111916" stroke-width="3"/><path d="M447 449v24" fill="none" stroke="#413d31" stroke-width="2" stroke-linejoin="miter" stroke-linecap="square"/><rect x="436" y="493" width="23" height="24" fill="#111916" stroke="#111916" stroke-width="3"/><rect x="436" y="537" width="23" height="24" fill="#111916" stroke="#111916" stroke-width="3"/><rect x="436" y="581" width="23" height="24" fill="#111916" stroke="#111916" stroke-width="3"/><path d="M1197 419 1132 432 1121 647 1210 675" fill="#7b8373" stroke="#111916" stroke-width="5" stroke-linejoin="miter" stroke-linecap="square"/><rect x="1151" y="461" width="20" height="23" fill="#111916" stroke="#111916" stroke-width="3"/><rect x="1151" y="505" width="20" height="23" fill="#d9a23b" stroke="#111916" stroke-width="3"/><path d="M1161 505v23" fill="none" stroke="#413d31" stroke-width="2" stroke-linejoin="miter" stroke-linecap="square"/><rect x="1151" y="549" width="20" height="23" fill="#111916" stroke="#111916" stroke-width="3"/><rect x="1151" y="593" width="20" height="23" fill="#111916" stroke="#111916" stroke-width="3"/><path d="M0 716 484 633 1158 633 1600 721 1600 900 0 900" fill="#111916" stroke="#111916" stroke-width="5" stroke-linejoin="miter" stroke-linecap="square"/><path d="M0 788 395 695 396 723 0 840" fill="#7b8373" stroke="none" stroke-width="0" stroke-linejoin="miter" stroke-linecap="square"/><path d="M1267 695 1600 789 1600 842 1267 724" fill="#7b8373" stroke="none" stroke-width="0" stroke-linejoin="miter" stroke-linecap="square"/><path d="M73 556 315 558 368 699 53 726" fill="#bd503d" stroke="#111916" stroke-width="5" stroke-linejoin="miter" stroke-linecap="square"/><path d="M53 542 319 533 342 563 36 578" fill="#d9a23b" stroke="#111916" stroke-width="5" stroke-linejoin="miter" stroke-linecap="square"/><rect x="105" y="585" width="153" height="49" fill="#111916" stroke="#eee8ce" stroke-width="3"/><path d="M110 640 158 635 165 680 118 686" fill="#78c5a0" stroke="#111916" stroke-width="5" stroke-linejoin="miter" stroke-linecap="square"/><path d="M208 635 250 629 266 674 223 681" fill="#d9a23b" stroke="#111916" stroke-width="5" stroke-linejoin="miter" stroke-linecap="square"/><path d="M1456 511 1469 263 1525 256 1541 524" fill="#111916" stroke="#7b8373" stroke-width="4" stroke-linejoin="miter" stroke-linecap="square"/><rect x="1457" y="267" width="72" height="19" fill="#eee8ce" stroke="#111916" stroke-width="3"/><path d="M1468 285 1414 365 M1481 284 1566 361" fill="none" stroke="#d9a23b" stroke-width="2" stroke-linejoin="miter" stroke-linecap="square"/><g transform="translate(340 754) scale(1.2)"><path d="M-13-70 -18-83 -11-98 4-101 15-90 17-76 6-66 -8-66" fill="#111916" stroke="none" stroke-width="0" stroke-linejoin="miter" stroke-linecap="square"/><path d="M-9-65 9-64 26-43 18-20 12-18 8-40 6-9 15 0 16 48 6 48 0 8 -3 48 -14 48 -12 2 -17-8 -18-39 -25-18 -34-22 -28-48" fill="#111916" stroke="none" stroke-width="0" stroke-linejoin="miter" stroke-linecap="square"/><path d="M14-53 35-66 53-62 49-54 35-54 22-38" fill="#111916" stroke="none" stroke-width="0" stroke-linejoin="miter" stroke-linecap="square"/></g><g transform="translate(1258 758) scale(1.5)"><path d="M-13-70 -18-83 -11-98 4-101 15-90 17-76 6-66 -8-66" fill="#111916" stroke="none" stroke-width="0" stroke-linejoin="miter" stroke-linecap="square"/><path d="M-9-65 9-64 26-43 18-20 12-18 8-40 6-9 15 0 16 48 6 48 0 8 -3 48 -14 48 -12 2 -17-8 -18-39 -25-18 -34-22 -28-48" fill="#111916" stroke="none" stroke-width="0" stroke-linejoin="miter" stroke-linecap="square"/></g><g transform="translate(1305 753) scale(1.17)"><path d="M-13-70 -18-83 -11-98 4-101 15-90 17-76 6-66 -8-66" fill="#111916" stroke="none" stroke-width="0" stroke-linejoin="miter" stroke-linecap="square"/><path d="M-9-65 9-64 26-43 18-20 12-18 8-40 6-9 15 0 16 48 6 48 0 8 -3 48 -14 48 -12 2 -17-8 -18-39 -25-18 -34-22 -28-48" fill="#111916" stroke="none" stroke-width="0" stroke-linejoin="miter" stroke-linecap="square"/><path d="M14-53 35-66 53-62 49-54 35-54 22-38" fill="#111916" stroke="none" stroke-width="0" stroke-linejoin="miter" stroke-linecap="square"/></g><path d="M738 70 845 56 932 61" fill="none" stroke="#7b8373" stroke-width="3" stroke-linejoin="miter" stroke-linecap="square"/><rect x="695" y="42" width="6" height="5" fill="#eee8ce" stroke="none" stroke-width="0"/><rect x="1059" y="109" width="5" height="5" fill="#eee8ce" stroke="none" stroke-width="0"/>
<rect x="0" y="0" width="1600" height="900" fill="url(#print)" stroke="none" stroke-width="0"/>
</svg>