<svg xmlns="http://www.w3.org/2000/svg" viewBox="0 0 220 240" role="img" aria-labelledby="title">
<title id="title">Symbol split modifier</title>
<defs><pattern id="hatch" width="10" height="10" patternUnits="userSpaceOnUse" patternTransform="rotate(-18)"><path d="M0 0V10" stroke="#111916" stroke-width="2" opacity=".3"/></pattern></defs>
<g stroke-linejoin="miter" stroke-linecap="square"><path d="M30 42 166 25 194 177 49 219 26 183" fill="#78c5a0" stroke="#111916" stroke-width="5" stroke-linejoin="miter" stroke-linecap="square"/><path d="M47 60 155 46 171 164 65 192 44 166" fill="#111916" stroke="#eee8ce" stroke-width="3" stroke-linejoin="miter" stroke-linecap="square"/><path d="M69 75 90 94 110 65 128 75 105 113 139 141 121 161 94 137 76 176 57 164 78 125 51 98" fill="#d9a23b" stroke="#111916" stroke-width="5" stroke-linejoin="miter" stroke-linecap="square"/><path d="M148 73 158 156 M149 85 161 143" fill="none" stroke="#78c5a0" stroke-width="3" stroke-linejoin="miter" stroke-linecap="square"/><path d="M127 8 144 8 161 21 145 32" fill="#eee8ce" stroke="#111916" stroke-width="3" stroke-linejoin="miter" stroke-linecap="square"/><path d="M9 95 24 90 M183 215 208 211" fill="none" stroke="#eee8ce" stroke-width="4" stroke-linejoin="miter" stroke-linecap="square"/></g>
</svg>