<svg xmlns="http://www.w3.org/2000/svg" width="240" height="260" viewBox="0 0 240 260" role="img" aria-label="Wild symbol">
  <defs><filter id="ink-wild" x="-8%" y="-8%" width="116%" height="116%" color-interpolation-filters="sRGB"><feTurbulence type="fractalNoise" baseFrequency=".043" numOctaves="2" seed="29" result="grain"/><feDisplacementMap in="SourceGraphic" in2="grain" scale="1.7" xChannelSelector="R" yChannelSelector="G"/></filter></defs>
  <g filter="url(#ink-wild)" stroke="#100f0e" stroke-linejoin="round" stroke-linecap="round">
    <path d="m118 18 18 45 39-24-3 43 44-3-27 37 38 25-45 13 22 40-42-8-7 48-33-32-31 37-12-47-44 17 15-47-46-12 37-30-27-37 44-2-1-45 33 27Z" fill="#b79548" stroke-width="9"/>
    <path d="m120 48 12 42 32-21-7 32 34-1-22 27 32 12-36 8 14 28-30-6-6 36-23-25-24 26-9-34-31 10 12-32-31-9 29-23-19-25 33-2-1-34 24 21Z" fill="#e9debc" stroke-width="4"/>
    <path d="m24 107 191-6 4 70-197 9Z" fill="#171614" stroke-width="8"/>
    <path d="m35 117 169-5m-168 58 167-8" fill="none" stroke="#a4332c" stroke-width="3"/>
    <g fill="none" stroke="#f0e8cf" stroke-width="7">
      <path d="m40 130 7 26 9-21 9 20 5-29"/>
      <path d="m89 125 2 28m-10-27 17-1m-15 29 17-2"/>
      <path d="m115 124 2 28 19-1"/>
      <path d="m151 122 2 29q32 0 27-20t-29-9Z"/>
    </g>
    <path d="m116 66 3 10m-53 15 9 9m111 70-9-6m-29 39-5-9m-76 8 5-12m-39-82 9 2m161-4-10 3" fill="none" stroke-width="3"/>
    <path d="m56 182 8 2m-6 4 9 2m-9 4 9 2m104-24 8 6m-10-1 8 6m-36-119 2 13m3-10 1 12m-72 14 9 7m-10-2 8 7" fill="none" stroke-width="2"/>
    <path d="m104 12 2-6m100 69 10-8m-187 125-11 6" fill="none" stroke-width="4"/>
  </g>
</svg>
